<svg id="Capa_1" enable-background="new 0 0 512 512" height="512" viewBox="0 0 512 512" width="512" xmlns="http://www.w3.org/2000/svg"><g><path d="m327 0c-102.01 0-185 82.99-185 185 0 29.152 6.787 56.745 18.85 81.298l-47.777 47.777c-2.813 2.813-4.394 6.628-4.394 10.606s1.58 7.794 4.394 10.606l-108.679 108.681c-2.814 2.812-4.394 6.628-4.394 10.606s1.58 7.794 4.394 10.606l42.427 42.426c2.929 2.929 6.768 4.394 10.606 4.394s7.678-1.465 10.606-4.394l108.68-108.681.001.001c2.813 2.813 6.628 4.394 10.606 4.394s7.794-1.58 10.606-4.394l47.776-47.777c24.553 12.064 52.146 18.851 81.298 18.851 102.01 0 185-82.99 185-185s-82.99-185-185-185zm-269.573 475.787-21.214-21.213 98.074-98.074 21.213 21.213zm129.893-108.68-42.427-42.427 31.863-31.863c11.752 16.331 26.096 30.675 42.427 42.427zm139.68-27.107c-85.467 0-155-69.533-155-155s69.533-155 155-155 155 69.533 155 155-69.533 155-155 155z"/></g></svg>